<svg width="54" height="41" viewBox="0 0 54 41" fill="none" xmlns="http://www.w3.org/2000/svg">
<path d="M1.75654 18.4085C1.20194 18.9633 0.890381 19.7156 0.890381 20.5C0.890381 21.2845 1.20194 22.0368 1.75654 22.5916L18.4918 39.3269C19.0498 39.8658 19.7971 40.1639 20.5727 40.1572C21.3484 40.1505 22.0904 39.8393 22.6389 39.2908C23.1874 38.7423 23.4985 38.0004 23.5052 37.2247C23.512 36.449 23.2138 35.7017 22.6749 35.1438L10.9895 23.4584H50.1667C50.9513 23.4584 51.7038 23.1467 52.2586 22.5919C52.8134 22.0371 53.125 21.2846 53.125 20.5C53.125 19.7154 52.8134 18.963 52.2586 18.4082C51.7038 17.8534 50.9513 17.5417 50.1667 17.5417H10.9895L22.6749 5.8563C23.2138 5.29835 23.512 4.55106 23.5052 3.7754C23.4985 2.99973 23.1874 2.25775 22.6389 1.70925C22.0904 1.16075 21.3484 0.849626 20.5727 0.842885C19.7971 0.836145 19.0498 1.13433 18.4918 1.67321L1.75654 18.4085Z" fill="#E26B40"/>
</svg>
