<svg width="54" height="41" viewBox="0 0 54 41" fill="none" xmlns="http://www.w3.org/2000/svg">
<path d="M35.5082 1.67365L52.2435 18.4089C52.7981 18.9637 53.1097 19.716 53.1097 20.5005C53.1097 21.2849 52.7981 22.0373 52.2435 22.592L35.5082 39.3273C34.9503 39.8662 34.203 40.1644 33.4273 40.1576C32.6517 40.1509 31.9097 39.8398 31.3612 39.2913C30.8127 38.7428 30.5015 38.0008 30.4948 37.2251C30.4881 36.4495 30.7862 35.7022 31.3251 35.1442L43.0105 23.4588H3.83333C3.04873 23.4588 2.29627 23.1471 1.74148 22.5923C1.18668 22.0375 0.875 21.2851 0.875 20.5005C0.875 19.7159 1.18668 18.9634 1.74148 18.4086C2.29627 17.8538 3.04873 17.5422 3.83333 17.5422H43.0105L31.3251 5.85674C31.0426 5.58384 30.8172 5.2574 30.6622 4.89647C30.5071 4.53554 30.4255 4.14735 30.4221 3.75455C30.4187 3.36174 30.4935 2.97219 30.6423 2.60862C30.791 2.24505 31.0107 1.91475 31.2885 1.63698C31.5662 1.35922 31.8965 1.13955 32.2601 0.990805C32.6237 0.842058 33.0132 0.767206 33.406 0.77062C33.7988 0.774033 34.187 0.855642 34.5479 1.01069C34.9089 1.16573 35.2353 1.3911 35.5082 1.67365Z" fill="#E26B40"/>
</svg>
