<svg width="30" height="31" viewBox="0 0 30 31" fill="none" xmlns="http://www.w3.org/2000/svg">
<path d="M21.375 0.875C23.5299 0.875 25.5965 1.73102 27.1202 3.25476C28.644 4.77849 29.5 6.84512 29.5 9V22C29.5 24.1549 28.644 26.2215 27.1202 27.7452C25.5965 29.269 23.5299 30.125 21.375 30.125H8.375C6.22012 30.125 4.15349 29.269 2.62976 27.7452C1.10602 26.2215 0.25 24.1549 0.25 22V9C0.25 6.84512 1.10602 4.77849 2.62976 3.25476C4.15349 1.73102 6.22012 0.875 8.375 0.875H21.375ZM14.875 9C13.1511 9 11.4978 9.68482 10.2788 10.9038C9.05982 12.1228 8.375 13.7761 8.375 15.5C8.375 17.2239 9.05982 18.8772 10.2788 20.0962C11.4978 21.3152 13.1511 22 14.875 22C16.5989 22 18.2522 21.3152 19.4712 20.0962C20.6902 18.8772 21.375 17.2239 21.375 15.5C21.375 13.7761 20.6902 12.1228 19.4712 10.9038C18.2522 9.68482 16.5989 9 14.875 9ZM14.875 12.25C15.737 12.25 16.5636 12.5924 17.1731 13.2019C17.7826 13.8114 18.125 14.638 18.125 15.5C18.125 16.362 17.7826 17.1886 17.1731 17.7981C16.5636 18.4076 15.737 18.75 14.875 18.75C14.013 18.75 13.1864 18.4076 12.5769 17.7981C11.9674 17.1886 11.625 16.362 11.625 15.5C11.625 14.638 11.9674 13.8114 12.5769 13.2019C13.1864 12.5924 14.013 12.25 14.875 12.25ZM22.1875 6.5625C21.7565 6.5625 21.3432 6.73371 21.0385 7.03845C20.7337 7.3432 20.5625 7.75652 20.5625 8.1875C20.5625 8.61848 20.7337 9.0318 21.0385 9.33655C21.3432 9.64129 21.7565 9.8125 22.1875 9.8125C22.6185 9.8125 23.0318 9.64129 23.3365 9.33655C23.6413 9.0318 23.8125 8.61848 23.8125 8.1875C23.8125 7.75652 23.6413 7.3432 23.3365 7.03845C23.0318 6.73371 22.6185 6.5625 22.1875 6.5625Z" fill="#F7C667"/>
</svg>
