<svg width="33" height="27" viewBox="0 0 33 27" fill="none" xmlns="http://www.w3.org/2000/svg">
<path d="M0.3605 2.53325L14.7824 16.9567C15.209 17.3837 15.7789 17.6372 16.3817 17.6681C16.9845 17.699 17.5773 17.5052 18.0454 17.1241L18.2306 16.9567L32.6427 2.543C32.6893 2.72175 32.7208 2.90429 32.737 3.09062L32.75 3.375V22.875C32.7503 23.6949 32.4406 24.4847 31.8831 25.0859C31.3255 25.6871 30.5614 26.0554 29.7437 26.1169L29.5 26.125H3.5C2.68006 26.1253 1.89033 25.8156 1.28911 25.2581C0.68789 24.7005 0.31962 23.9364 0.258125 23.1187L0.25 22.875V3.375C0.25 3.18 0.26625 2.99042 0.29875 2.80625L0.3605 2.53325ZM29.5 0.125C29.6972 0.125 29.8895 0.141792 30.0769 0.175375L30.3531 0.23875L16.5081 14.0837L2.65825 0.2355C2.83808 0.18675 3.02225 0.15425 3.21075 0.138L3.5 0.125H29.5Z" fill="#F7C667"/>
</svg>
